<svg width="32" height="32" viewBox="0 0 32 32" fill="none" xmlns="http://www.w3.org/2000/svg">
<mask id="path-1-inside-1_285_1895" fill="white">
<path fill-rule="evenodd" clip-rule="evenodd" d="M16 32C24.8366 32 32 24.8366 32 16C32 7.16344 24.8366 0 16 0C7.16344 0 0 7.16344 0 16C0 24.8366 7.16344 32 16 32ZM8 15.5074C8 10.1631 10.3037 8 16 8C21.6963 8 24 10.1631 24 15.5074C24 20.8517 21.6963 23.0148 16 23.0148C15.5812 23.0148 15.2461 23.0148 14.6597 22.93L13.0681 24.7538C12.7749 25.0931 11.8953 25.2204 11.8953 24.2024V22.421C11.644 22.421 11.0576 22.1665 10.2618 21.6575C9.46597 21.1061 8 19.7913 8 15.5074ZM9.25654 15.5074C9.25654 11.6477 9.96859 9.27244 16 9.27244C22.0314 9.27244 22.7435 11.6477 22.7435 15.5074C22.7435 19.3671 22.0314 21.7424 16 21.7424L14.911 21.6999L12.6911 24.3721C12.5236 24.5417 12.356 24.4145 12.356 24.2448V21.3182C12.1047 21.3182 11.0576 20.8092 10.7644 20.5123C9.84293 19.5368 9.25654 18.8157 9.25654 15.5074ZM15.8792 11.5204C16.4162 11.5077 16.9498 11.6089 17.4459 11.8174C17.9419 12.0259 18.3895 12.337 18.7598 12.731C19.1301 13.1249 19.415 13.5929 19.5963 14.1049C19.7775 14.6169 19.851 15.1616 19.8121 15.7041C19.8037 15.8209 19.8904 15.9225 20.0058 15.931C20.1211 15.9395 20.2214 15.8516 20.2298 15.7348C20.273 15.1334 20.1915 14.5295 19.9905 13.9618C19.7896 13.3942 19.4738 12.8753 19.0632 12.4386C18.6526 12.0018 18.1564 11.6568 17.6064 11.4256C17.0564 11.1945 16.4648 11.0823 15.8695 11.0963C15.7538 11.099 15.6623 11.1962 15.665 11.3133C15.6677 11.4304 15.7636 11.5231 15.8792 11.5204ZM18.3456 17.1192C17.9546 16.8647 17.6195 16.9212 17.3403 17.2888C16.4188 19.0702 12.6492 14.956 14.2827 14.3198C14.6457 14.037 14.7435 13.726 14.5759 13.3867L13.5288 11.9022C13.2775 11.5063 12.9703 11.4356 12.6073 11.6901C11.9092 12.0859 11.5602 12.5666 11.5602 13.1322C11.8953 14.7157 12.7469 16.186 14.1152 17.5433C15.4834 18.9006 16.9075 19.7489 18.3874 20.0882C18.7504 20.173 19.1414 19.9609 19.5602 19.452C19.9791 18.943 20.0768 18.5471 19.8534 18.2644L18.3456 17.1192ZM17.2248 12.8243C16.9171 12.6912 16.586 12.6228 16.2515 12.6232C16.1359 12.6233 16.042 12.5285 16.0419 12.4114C16.0418 12.2942 16.1354 12.1992 16.2511 12.199C16.6423 12.1986 17.0295 12.2786 17.3893 12.4342C17.749 12.5898 18.0739 12.8177 18.3441 13.1042C18.6143 13.3906 18.8243 13.7296 18.9613 14.1007C19.0983 14.4718 19.1595 14.8671 19.1411 15.2628C19.1357 15.3798 19.0377 15.4702 18.9221 15.4647C18.8066 15.4593 18.7173 15.36 18.7227 15.243C18.7384 14.9046 18.6861 14.5665 18.569 14.2493C18.4518 13.932 18.2723 13.6421 18.0412 13.3971C17.8102 13.1522 17.5324 12.9573 17.2248 12.8243ZM16.5516 13.7683C16.695 13.7633 16.8379 13.7883 16.9714 13.8416C17.1048 13.895 17.2261 13.9755 17.3275 14.0782C17.429 14.181 17.5085 14.3037 17.5612 14.4389C17.6138 14.5741 17.6385 14.7188 17.6336 14.864C17.6297 14.981 17.7202 15.0792 17.8358 15.0831C17.9514 15.0871 18.0483 14.9954 18.0522 14.8784C18.059 14.6751 18.0245 14.4725 17.9508 14.2833C17.8771 14.094 17.7658 13.9222 17.6237 13.7783C17.4817 13.6345 17.3119 13.5217 17.1251 13.4471C16.9382 13.3724 16.7382 13.3375 16.5374 13.3444C16.4218 13.3483 16.3313 13.4465 16.3352 13.5635C16.3391 13.6806 16.436 13.7722 16.5516 13.7683Z"/>
</mask>
<path fill-rule="evenodd" clip-rule="evenodd" d="M16 32C24.8366 32 32 24.8366 32 16C32 7.16344 24.8366 0 16 0C7.16344 0 0 7.16344 0 16C0 24.8366 7.16344 32 16 32ZM8 15.5074C8 10.1631 10.3037 8 16 8C21.6963 8 24 10.1631 24 15.5074C24 20.8517 21.6963 23.0148 16 23.0148C15.5812 23.0148 15.2461 23.0148 14.6597 22.93L13.0681 24.7538C12.7749 25.0931 11.8953 25.2204 11.8953 24.2024V22.421C11.644 22.421 11.0576 22.1665 10.2618 21.6575C9.46597 21.1061 8 19.7913 8 15.5074ZM9.25654 15.5074C9.25654 11.6477 9.96859 9.27244 16 9.27244C22.0314 9.27244 22.7435 11.6477 22.7435 15.5074C22.7435 19.3671 22.0314 21.7424 16 21.7424L14.911 21.6999L12.6911 24.3721C12.5236 24.5417 12.356 24.4145 12.356 24.2448V21.3182C12.1047 21.3182 11.0576 20.8092 10.7644 20.5123C9.84293 19.5368 9.25654 18.8157 9.25654 15.5074ZM15.8792 11.5204C16.4162 11.5077 16.9498 11.6089 17.4459 11.8174C17.9419 12.0259 18.3895 12.337 18.7598 12.731C19.1301 13.1249 19.415 13.5929 19.5963 14.1049C19.7775 14.6169 19.851 15.1616 19.8121 15.7041C19.8037 15.8209 19.8904 15.9225 20.0058 15.931C20.1211 15.9395 20.2214 15.8516 20.2298 15.7348C20.273 15.1334 20.1915 14.5295 19.9905 13.9618C19.7896 13.3942 19.4738 12.8753 19.0632 12.4386C18.6526 12.0018 18.1564 11.6568 17.6064 11.4256C17.0564 11.1945 16.4648 11.0823 15.8695 11.0963C15.7538 11.099 15.6623 11.1962 15.665 11.3133C15.6677 11.4304 15.7636 11.5231 15.8792 11.5204ZM18.3456 17.1192C17.9546 16.8647 17.6195 16.9212 17.3403 17.2888C16.4188 19.0702 12.6492 14.956 14.2827 14.3198C14.6457 14.037 14.7435 13.726 14.5759 13.3867L13.5288 11.9022C13.2775 11.5063 12.9703 11.4356 12.6073 11.6901C11.9092 12.0859 11.5602 12.5666 11.5602 13.1322C11.8953 14.7157 12.7469 16.186 14.1152 17.5433C15.4834 18.9006 16.9075 19.7489 18.3874 20.0882C18.7504 20.173 19.1414 19.9609 19.5602 19.452C19.9791 18.943 20.0768 18.5471 19.8534 18.2644L18.3456 17.1192ZM17.2248 12.8243C16.9171 12.6912 16.586 12.6228 16.2515 12.6232C16.1359 12.6233 16.042 12.5285 16.0419 12.4114C16.0418 12.2942 16.1354 12.1992 16.2511 12.199C16.6423 12.1986 17.0295 12.2786 17.3893 12.4342C17.749 12.5898 18.0739 12.8177 18.3441 13.1042C18.6143 13.3906 18.8243 13.7296 18.9613 14.1007C19.0983 14.4718 19.1595 14.8671 19.1411 15.2628C19.1357 15.3798 19.0377 15.4702 18.9221 15.4647C18.8066 15.4593 18.7173 15.36 18.7227 15.243C18.7384 14.9046 18.6861 14.5665 18.569 14.2493C18.4518 13.932 18.2723 13.6421 18.0412 13.3971C17.8102 13.1522 17.5324 12.9573 17.2248 12.8243ZM16.5516 13.7683C16.695 13.7633 16.8379 13.7883 16.9714 13.8416C17.1048 13.895 17.2261 13.9755 17.3275 14.0782C17.429 14.181 17.5085 14.3037 17.5612 14.4389C17.6138 14.5741 17.6385 14.7188 17.6336 14.864C17.6297 14.981 17.7202 15.0792 17.8358 15.0831C17.9514 15.0871 18.0483 14.9954 18.0522 14.8784C18.059 14.6751 18.0245 14.4725 17.9508 14.2833C17.8771 14.094 17.7658 13.9222 17.6237 13.7783C17.4817 13.6345 17.3119 13.5217 17.1251 13.4471C16.9382 13.3724 16.7382 13.3375 16.5374 13.3444C16.4218 13.3483 16.3313 13.4465 16.3352 13.5635C16.3391 13.6806 16.436 13.7722 16.5516 13.7683Z" fill="#192D47"/>
<path d="M14.6597 22.93L14.8029 21.9403L14.2641 21.8623L13.9062 22.2725L14.6597 22.93ZM13.0681 24.7538L12.3146 24.0963L12.3114 24.1L13.0681 24.7538ZM11.8953 22.421H12.8953V21.421H11.8953V22.421ZM10.2618 21.6575L9.69226 22.4795L9.70743 22.49L9.72298 22.5L10.2618 21.6575ZM16 21.7424L15.9611 22.7416L15.9805 22.7424H16V21.7424ZM14.911 21.6999L14.9499 20.7007L14.457 20.6815L14.1418 21.0609L14.911 21.6999ZM12.6911 24.3721L13.4026 25.0747L13.4328 25.0441L13.4603 25.0111L12.6911 24.3721ZM12.356 21.3182H13.356V20.3182H12.356V21.3182ZM10.7644 20.5123L10.0374 21.199L10.0451 21.2071L10.0529 21.215L10.7644 20.5123ZM17.4459 11.8174L17.0584 12.7393L17.0584 12.7393L17.4459 11.8174ZM15.8792 11.5204L15.8557 10.5206H15.8557L15.8792 11.5204ZM18.7598 12.731L19.4884 12.0461L19.4884 12.0461L18.7598 12.731ZM19.5963 14.1049L20.539 13.7713L20.539 13.7713L19.5963 14.1049ZM19.8121 15.7041L20.8095 15.7757V15.7756L19.8121 15.7041ZM20.2298 15.7348L19.2324 15.6633V15.6633L20.2298 15.7348ZM19.9905 13.9618L20.9332 13.6282L20.9332 13.6282L19.9905 13.9618ZM19.0632 12.4386L19.7918 11.7536V11.7536L19.0632 12.4386ZM17.6064 11.4256L17.219 12.3475L17.219 12.3475L17.6064 11.4256ZM15.8695 11.0963L15.8459 10.0966H15.8459L15.8695 11.0963ZM15.665 11.3133L16.6647 11.2903V11.2903L15.665 11.3133ZM17.3403 17.2888L16.544 16.6839L16.4918 16.7527L16.4521 16.8294L17.3403 17.2888ZM18.3456 17.1192L18.9504 16.3228L18.9215 16.3009L18.8911 16.2811L18.3456 17.1192ZM14.2827 14.3198L14.6456 15.2516L14.7819 15.1985L14.8972 15.1087L14.2827 14.3198ZM14.5759 13.3867L15.4726 12.9439L15.438 12.874L15.3931 12.8103L14.5759 13.3867ZM13.5288 11.9022L12.6845 12.4381L12.6976 12.4587L12.7116 12.4786L13.5288 11.9022ZM12.6073 11.6901L13.1006 12.5599L13.1422 12.5364L13.1814 12.5089L12.6073 11.6901ZM11.5602 13.1322H10.5602V13.2368L10.5819 13.3392L11.5602 13.1322ZM14.1152 17.5433L13.4109 18.2533L14.1152 17.5433ZM18.3874 20.0882L18.615 19.1144L18.6109 19.1135L18.3874 20.0882ZM19.5602 19.452L18.788 18.8165H18.788L19.5602 19.452ZM19.8534 18.2644L20.6381 17.6445L20.5594 17.5448L20.4582 17.468L19.8534 18.2644ZM16.2515 12.6232L16.2504 11.6232H16.2504L16.2515 12.6232ZM16.0419 12.4114L15.0419 12.4124V12.4124L16.0419 12.4114ZM16.2511 12.199L16.2522 13.199L16.2511 12.199ZM17.3893 12.4342L16.9923 13.352L17.3893 12.4342ZM18.3441 13.1042L19.0715 12.418L19.0715 12.418L18.3441 13.1042ZM19.1411 15.2628L20.1401 15.3091V15.3091L19.1411 15.2628ZM18.9221 15.4647L18.8746 16.4636H18.8747L18.9221 15.4647ZM18.7227 15.243L17.7238 15.1967V15.1967L18.7227 15.243ZM18.569 14.2493L17.6309 14.5956V14.5956L18.569 14.2493ZM18.0412 13.3971L17.3138 14.0833V14.0833L18.0412 13.3971ZM16.5516 13.7683L16.5859 14.7677H16.5859L16.5516 13.7683ZM17.5612 14.4389L18.493 14.0759L18.493 14.0759L17.5612 14.4389ZM17.6336 14.864L16.6342 14.8305V14.8305L17.6336 14.864ZM17.8358 15.0831L17.8015 16.0825H17.8015L17.8358 15.0831ZM18.0522 14.8784L17.0528 14.8449V14.8449L18.0522 14.8784ZM17.9508 14.2833L18.8826 13.9203L18.8826 13.9203L17.9508 14.2833ZM17.6237 13.7783L18.3353 13.0757L18.3352 13.0757L17.6237 13.7783ZM17.1251 13.4471L17.496 12.5184L17.496 12.5184L17.1251 13.4471ZM16.5374 13.3444L16.5031 12.345H16.5031L16.5374 13.3444ZM31 16C31 24.2843 24.2843 31 16 31V33C25.3888 33 33 25.3888 33 16H31ZM16 1C24.2843 1 31 7.71573 31 16H33C33 6.61116 25.3888 -1 16 -1V1ZM1 16C1 7.71573 7.71573 1 16 1V-1C6.61116 -1 -1 6.61116 -1 16H1ZM16 31C7.71573 31 1 24.2843 1 16H-1C-1 25.3888 6.61116 33 16 33V31ZM16 7C13.0632 7 10.746 7.55028 9.17952 9.02045C7.59725 10.5055 7 12.7195 7 15.5074H9C9 12.951 9.55458 11.4113 10.5482 10.4788C11.5577 9.5313 13.2404 9 16 9V7ZM25 15.5074C25 12.7195 24.4028 10.5055 22.8205 9.02045C21.254 7.55028 18.9368 7 16 7V9C18.7596 9 20.4423 9.5313 21.4518 10.4788C22.4454 11.4113 23 12.951 23 15.5074H25ZM16 24.0148C18.9368 24.0148 21.254 23.4645 22.8205 21.9944C24.4028 20.5093 25 18.2953 25 15.5074H23C23 18.0638 22.4454 19.6035 21.4518 20.536C20.4423 21.4835 18.7596 22.0148 16 22.0148V24.0148ZM14.5165 23.9197C15.1743 24.0148 15.5658 24.0148 16 24.0148V22.0148C15.5965 22.0148 15.3179 22.0148 14.8029 21.9403L14.5165 23.9197ZM13.8215 25.4113L15.4131 23.5875L13.9062 22.2725L12.3146 24.0963L13.8215 25.4113ZM10.8953 24.2024C10.8953 24.5938 10.9795 24.994 11.2147 25.3344C11.4604 25.6898 11.8115 25.8924 12.1693 25.9664C12.8 26.0967 13.4541 25.8366 13.8247 25.4076L12.3114 24.1C12.3702 24.0319 12.4166 24.0151 12.4277 24.0112C12.4422 24.006 12.4917 23.9908 12.5741 24.0078C12.6754 24.0287 12.7883 24.0935 12.8599 24.1971C12.9211 24.2856 12.8953 24.32 12.8953 24.2024H10.8953ZM10.8953 22.421V24.2024H12.8953V22.421H10.8953ZM9.72298 22.5C10.1479 22.7717 10.535 22.9874 10.8659 23.1391C11.1479 23.2684 11.5322 23.421 11.8953 23.421V21.421C11.9781 21.421 12.0047 21.4375 11.9417 21.418C11.8919 21.4026 11.8119 21.3727 11.6995 21.3211C11.4755 21.2184 11.1715 21.0523 10.8006 20.8151L9.72298 22.5ZM7 15.5074C7 17.7603 7.38524 19.3224 7.93781 20.4289C8.49937 21.5535 9.19952 22.1381 9.69226 22.4795L10.8313 20.8356C10.5282 20.6256 10.0975 20.2771 9.72711 19.5354C9.34774 18.7757 9 17.5383 9 15.5074H7ZM16 8.27244C12.9086 8.27244 10.8381 8.87019 9.61051 10.2879C8.41031 11.674 8.25654 13.5917 8.25654 15.5074H10.2565C10.2565 13.5634 10.4588 12.3636 11.1225 11.5971C11.7587 10.8623 13.06 10.2724 16 10.2724V8.27244ZM23.7435 15.5074C23.7435 13.5917 23.5897 11.674 22.3895 10.2879C21.1619 8.87019 19.0914 8.27244 16 8.27244V10.2724C18.94 10.2724 20.2413 10.8623 20.8775 11.5971C21.5412 12.3636 21.7435 13.5634 21.7435 15.5074H23.7435ZM16 22.7424C19.0914 22.7424 21.1619 22.1446 22.3895 20.7269C23.5897 19.3408 23.7435 17.4232 23.7435 15.5074H21.7435C21.7435 17.4514 21.5412 18.6512 20.8775 19.4177C20.2413 20.1525 18.94 20.7424 16 20.7424V22.7424ZM14.8721 22.6992L15.9611 22.7416L16.0389 20.7431L14.9499 20.7007L14.8721 22.6992ZM13.4603 25.0111L15.6802 22.339L14.1418 21.0609L11.9219 23.7331L13.4603 25.0111ZM11.356 24.2448C11.356 24.6321 11.5482 25.0945 12.009 25.3279C12.5583 25.606 13.0992 25.382 13.4026 25.0747L11.9796 23.6694C12.0382 23.61 12.1555 23.5176 12.3381 23.4744C12.5296 23.4292 12.7343 23.4533 12.9125 23.5435C13.2476 23.7132 13.356 24.0272 13.356 24.2448H11.356ZM11.356 21.3182V24.2448H13.356V21.3182H11.356ZM10.0529 21.215C10.2107 21.3748 10.4121 21.5121 10.5719 21.6118C10.7474 21.7214 10.9423 21.8282 11.1299 21.9217C11.3168 22.0148 11.5115 22.1022 11.688 22.1691C11.7757 22.2024 11.8706 22.235 11.9648 22.2607C12.0412 22.2814 12.1886 22.3182 12.356 22.3182V20.3182C12.4607 20.3182 12.5204 20.3391 12.4902 20.3309C12.4779 20.3275 12.4474 20.3181 12.3971 20.299C12.2974 20.2612 12.1649 20.2028 12.0219 20.1316C11.8796 20.0607 11.7421 19.9846 11.631 19.9152C11.5041 19.836 11.4647 19.7983 11.4759 19.8097L10.0529 21.215ZM8.25654 15.5074C8.25654 17.2025 8.40397 18.3483 8.72577 19.2282C9.06136 20.1457 9.55985 20.6934 10.0374 21.199L11.4914 19.8257C11.0475 19.3557 10.792 19.0551 10.6041 18.5412C10.4023 17.9895 10.2565 17.1206 10.2565 15.5074H8.25654ZM17.8333 10.8955C17.2075 10.6325 16.5338 10.5047 15.8557 10.5206L15.9028 12.5201C16.2985 12.5108 16.6921 12.5853 17.0584 12.7393L17.8333 10.8955ZM19.4884 12.0461C19.0227 11.5506 18.4591 11.1585 17.8333 10.8955L17.0584 12.7393C17.4248 12.8932 17.7563 13.1235 18.0312 13.4159L19.4884 12.0461ZM20.539 13.7713C20.3117 13.1292 19.9541 12.5415 19.4884 12.0461L18.0312 13.4159C18.3061 13.7084 18.5184 14.0566 18.6536 14.4386L20.539 13.7713ZM20.8095 15.7756C20.8583 15.096 20.7662 14.4133 20.539 13.7713L18.6536 14.4386C18.7887 14.8205 18.8437 15.2273 18.8146 15.6326L20.8095 15.7756ZM20.0791 14.9337C20.5255 14.9665 20.8398 15.354 20.8095 15.7757L18.8146 15.6326C18.7676 16.2878 19.2553 16.8785 19.9324 16.9283L20.0791 14.9337ZM19.2324 15.6633C19.2627 15.2403 19.6313 14.9007 20.0791 14.9337L19.9324 16.9283C20.611 16.9782 21.1802 16.463 21.2273 15.8064L19.2324 15.6633ZM19.0478 14.2955C19.2027 14.7331 19.2657 15.1991 19.2324 15.6633L21.2273 15.8064C21.2802 15.0677 21.1802 14.3259 20.9332 13.6282L19.0478 14.2955ZM18.3346 13.1235C18.6498 13.4588 18.893 13.8579 19.0478 14.2955L20.9332 13.6282C20.6863 12.9305 20.2978 12.2919 19.7918 11.7536L18.3346 13.1235ZM17.219 12.3475C17.6393 12.5241 18.0194 12.7882 18.3346 13.1235L19.7918 11.7536C19.2858 11.2154 18.6736 10.7894 17.9939 10.5037L17.219 12.3475ZM15.893 12.096C16.3471 12.0854 16.7987 12.1709 17.219 12.3475L17.9939 10.5037C17.3142 10.2181 16.5825 10.0793 15.8459 10.0966L15.893 12.096ZM16.6647 11.2903C16.6744 11.7133 16.3411 12.0855 15.893 12.096L15.8459 10.0966C15.1666 10.1126 14.6502 10.6791 14.6652 11.3362L16.6647 11.2903ZM15.8557 10.5206C16.3042 10.5101 16.655 10.8669 16.6647 11.2903L14.6652 11.3362C14.6803 11.9938 15.223 12.5361 15.9028 12.5201L15.8557 10.5206ZM18.1366 17.8937C18.1784 17.8387 18.1292 17.9295 17.9675 17.9568C17.8079 17.9837 17.7357 17.9154 17.8 17.9572L18.8911 16.2811C18.5645 16.0685 18.1292 15.9012 17.6346 15.9847C17.1378 16.0685 16.7814 16.3714 16.544 16.6839L18.1366 17.8937ZM13.9198 13.388C13.4533 13.5697 13.0978 13.9259 12.9502 14.4132C12.8189 14.847 12.886 15.2727 12.9862 15.5976C13.1871 16.2484 13.6454 16.8986 14.1334 17.4049C14.6196 17.9093 15.2633 18.4039 15.9417 18.6191C16.2882 18.729 16.722 18.7902 17.1662 18.6562C17.6425 18.5125 18.0039 18.1825 18.2285 17.7483L16.4521 16.8294C16.4464 16.8405 16.4884 16.7716 16.5885 16.7414C16.6566 16.7209 16.6575 16.7479 16.5465 16.7127C16.31 16.6377 15.9406 16.3979 15.5734 16.0169C15.208 15.6379 14.9726 15.2516 14.8973 15.0077C14.8595 14.8852 14.8928 14.899 14.8644 14.9929C14.8197 15.1405 14.7038 15.229 14.6456 15.2516L13.9198 13.388ZM13.6793 13.8294C13.6771 13.8251 13.6632 13.7949 13.6575 13.7426C13.6516 13.6875 13.6573 13.6286 13.6743 13.5747C13.7066 13.4717 13.753 13.4648 13.6682 13.5309L14.8972 15.1087C15.1754 14.892 15.4522 14.5882 15.5823 14.1742C15.7207 13.7337 15.6507 13.3046 15.4726 12.9439L13.6793 13.8294ZM12.7116 12.4786L13.7587 13.9631L15.3931 12.8103L14.346 11.3258L12.7116 12.4786ZM13.1814 12.5089C13.228 12.4762 13.1059 12.5774 12.8857 12.5268C12.6813 12.4797 12.6318 12.355 12.6845 12.4381L14.373 11.3662C14.1745 11.0534 13.8457 10.6954 13.3342 10.5777C12.8068 10.4563 12.3496 10.6495 12.0333 10.8713L13.1814 12.5089ZM12.5602 13.1322C12.5602 13.0682 12.5693 12.8612 13.1006 12.5599L12.114 10.8202C11.2492 11.3107 10.5602 12.0651 10.5602 13.1322H12.5602ZM14.8194 16.8334C13.5628 15.5868 12.8261 14.284 12.5385 12.9252L10.5819 13.3392C10.9645 15.1473 11.9311 16.7853 13.4109 18.2533L14.8194 16.8334ZM18.6109 19.1135C17.3558 18.8257 16.0905 18.0943 14.8194 16.8334L13.4109 18.2533C14.8763 19.7069 16.4592 20.672 18.164 21.0629L18.6109 19.1135ZM18.788 18.8165C18.6246 19.0151 18.5175 19.0913 18.476 19.1138C18.4597 19.1226 18.468 19.1152 18.4985 19.1101C18.5317 19.1045 18.5732 19.1047 18.615 19.1144L18.1599 21.062C19.1173 21.2857 19.8646 20.6559 20.3324 20.0874L18.788 18.8165ZM19.0687 18.8843C19.0284 18.8332 18.9927 18.762 18.9774 18.6797C18.963 18.6016 18.9732 18.548 18.9768 18.5337C18.9796 18.5221 18.9765 18.5417 18.9457 18.5956C18.9154 18.6487 18.8657 18.7221 18.788 18.8165L20.3324 20.0874C20.5849 19.7805 20.8184 19.4186 20.9185 19.013C21.0303 18.5601 20.9682 18.0623 20.6381 17.6445L19.0687 18.8843ZM17.7407 17.9155L19.2486 19.0607L20.4582 17.468L18.9504 16.3228L17.7407 17.9155ZM16.2527 13.6232C16.45 13.623 16.6456 13.6633 16.8279 13.7421L17.6217 11.9064C17.1887 11.7191 16.7221 11.6227 16.2504 11.6232L16.2527 13.6232ZM15.0419 12.4124C15.0426 13.07 15.5729 13.624 16.2527 13.6232L16.2504 11.6232C16.6989 11.6227 17.0414 11.987 17.0419 12.4103L15.0419 12.4124ZM16.25 11.199C15.5702 11.1998 15.0412 11.7549 15.0419 12.4124L17.0419 12.4103C17.0423 12.8335 16.7006 13.1985 16.2522 13.199L16.25 11.199ZM17.7862 11.5163C17.301 11.3065 16.7783 11.1985 16.25 11.199L16.2522 13.199C16.5062 13.1988 16.758 13.2507 16.9923 13.352L17.7862 11.5163ZM19.0715 12.418C18.7085 12.0331 18.2713 11.7261 17.7862 11.5163L16.9923 13.352C17.2267 13.4534 17.4393 13.6023 17.6167 13.7903L19.0715 12.418ZM19.8994 13.7543C19.716 13.2576 19.4345 12.8028 19.0715 12.418L17.6167 13.7903C17.7941 13.9784 17.9326 14.2017 18.0232 14.4471L19.8994 13.7543ZM20.1401 15.3091C20.1646 14.78 20.0828 14.2511 19.8994 13.7543L18.0232 14.4471C18.1138 14.6924 18.1544 14.9543 18.1422 15.2166L20.1401 15.3091ZM18.8747 16.4636C19.5541 16.4959 20.1096 15.9664 20.1401 15.3091L18.1422 15.2165C18.1618 14.7933 18.5212 14.4446 18.9696 14.4659L18.8747 16.4636ZM17.7238 15.1967C17.6934 15.8531 18.1962 16.4314 18.8746 16.4636L18.9696 14.4659C19.417 14.4871 19.7412 14.8668 19.7217 15.2892L17.7238 15.1967ZM17.6309 14.5956C17.7016 14.7872 17.7333 14.9917 17.7238 15.1967L19.7217 15.2893C19.7435 14.8175 19.6706 14.3459 19.5071 13.9029L17.6309 14.5956ZM17.3138 14.0833C17.452 14.2299 17.5601 14.4041 17.6309 14.5956L19.5071 13.9029C19.3435 13.4599 19.0925 13.0543 18.7686 12.7109L17.3138 14.0833ZM16.8279 13.7421C17.0101 13.8209 17.1756 13.9368 17.3138 14.0833L18.7686 12.7109C18.4448 12.3676 18.0547 12.0937 17.6217 11.9064L16.8279 13.7421ZM17.3423 12.913C17.0803 12.8083 16.7995 12.7592 16.5173 12.7689L16.5859 14.7677C16.5906 14.7675 16.5954 14.7683 16.6004 14.7703L17.3423 12.913ZM18.0391 13.3756C17.8413 13.1753 17.6043 13.0176 17.3423 12.913L16.6004 14.7703C16.6054 14.7723 16.6108 14.7757 16.616 14.7809L18.0391 13.3756ZM18.493 14.0759C18.3911 13.8143 18.2368 13.5758 18.0391 13.3756L16.616 14.7809C16.6212 14.7861 16.626 14.7932 16.6294 14.8019L18.493 14.0759ZM18.6331 14.8975C18.6425 14.6171 18.5949 14.3375 18.493 14.0759L16.6294 14.8019C16.6328 14.8106 16.6345 14.8204 16.6342 14.8305L18.6331 14.8975ZM17.8702 14.0837C18.318 14.0991 18.6472 14.4747 18.6331 14.8975L16.6342 14.8305C16.6122 15.4874 17.1225 16.0592 17.8015 16.0825L17.8702 14.0837ZM17.0528 14.8449C17.067 14.4215 17.4217 14.0683 17.8702 14.0837L17.8015 16.0825C18.4812 16.1059 19.0296 15.5694 19.0517 14.9118L17.0528 14.8449ZM17.019 14.6463C17.0435 14.7091 17.0551 14.7767 17.0528 14.8449L19.0517 14.9119C19.063 14.5734 19.0056 14.2359 18.8826 13.9203L17.019 14.6463ZM16.9122 14.481C16.958 14.5273 16.9946 14.5835 17.019 14.6463L18.8826 13.9203C18.7596 13.6046 18.5736 13.317 18.3353 13.0757L16.9122 14.481ZM16.7541 14.3757C16.8125 14.3991 16.8664 14.4346 16.9122 14.481L18.3352 13.0757C18.0969 12.8343 17.8114 12.6444 17.496 12.5184L16.7541 14.3757ZM16.5717 14.3438C16.6337 14.3416 16.6957 14.3524 16.7541 14.3757L17.496 12.5184C17.1807 12.3925 16.8426 12.3333 16.5031 12.345L16.5717 14.3438ZM17.3346 13.53C17.3488 13.9528 17.0195 14.3284 16.5717 14.3438L16.5031 12.345C15.8241 12.3683 15.3138 12.9401 15.3358 13.597L17.3346 13.53ZM16.5173 12.7689C16.9657 12.7535 17.3205 13.1066 17.3346 13.53L15.3358 13.597C15.3578 14.2545 15.9063 14.791 16.5859 14.7677L16.5173 12.7689Z" fill="#192D47" mask="url(#path-1-inside-1_285_1895)"/>
</svg>
