<svg width="12" height="16" viewBox="0 0 12 16" fill="none" xmlns="http://www.w3.org/2000/svg">
<path d="M1.83885 9.88657L1.83899 9.88646C1.81959 9.86116 1.77584 9.80111 1.74245 9.75514L1.69506 9.68979L1.68011 9.6691L1.67595 9.66336L1.67504 9.66209L1.67485 9.66183L1.67457 9.66144L1.67449 9.66133L1.67447 9.6613L1.67446 9.66129L2.07982 9.36857C1.43697 8.48205 1.08957 7.39903 1.09091 6.28571L1.83885 9.88657ZM1.83885 9.88657L1.84717 9.89684M1.83885 9.88657L1.84717 9.89684M1.84717 9.89684L5.61135 14.5477L6.00001 15.0279M1.84717 9.89684L6.00001 15.0279M6.00001 15.0279L6.38866 14.5477M6.00001 15.0279L6.38866 14.5477M6.38866 14.5477L10.1578 9.89055L10.1579 9.89068M6.38866 14.5477L10.1579 9.89068M10.1579 9.89068L10.1665 9.87946M10.1579 9.89068L10.1665 9.87946M10.1665 9.87946C10.1834 9.8573 10.2263 9.79813 10.2589 9.75318L10.3059 9.68827L10.3063 9.68766L10.3206 9.66784M10.1665 9.87946L10.3206 9.66784M10.3206 9.66784L10.3243 9.66278L10.3206 9.66784ZM0.500004 6.28625V6.28571C0.500004 4.74394 1.08485 3.26972 2.11904 2.18628C3.15247 1.10363 4.54901 0.5 6 0.5C7.45099 0.5 8.84753 1.10363 9.88096 2.18628C10.9152 3.26972 11.5 4.74394 11.5 6.28571V6.28618C11.5012 7.54372 11.1089 8.76465 10.3868 9.76224L10.3397 9.82727L10.3394 9.82817L10.3029 9.87815C10.2812 9.9079 10.259 9.938 10.2411 9.96224C10.2286 9.97914 10.2209 9.98936 10.2171 9.9944C10.2144 9.99793 10.2137 9.99891 10.2146 9.99785L10.2144 9.99802L5.99999 15.2052L1.79315 10.0076C1.73272 9.92688 1.67289 9.84562 1.61368 9.76386C0.891057 8.76592 0.498652 7.54439 0.500004 6.28625ZM2.16707 2.30393C1.15548 3.36369 0.59099 4.79625 0.590912 6.28541L11.4091 6.28571C11.4091 6.28552 11.4091 6.28532 11.4091 6.28513C11.4089 4.79607 10.8445 3.36362 9.83293 2.30393C8.82051 1.2433 7.44228 0.642857 6 0.642857C4.55772 0.642857 3.17949 1.2433 2.16707 2.30393Z" fill="#192D47" stroke="#192D47"/>
</svg>
