<svg width="49" height="54" viewBox="0 0 49 54" fill="none" xmlns="http://www.w3.org/2000/svg">
<path d="M21.3335 0.333374C26.514 0.332575 31.5178 2.21686 35.4109 5.63454C39.3041 9.05223 41.8206 13.7698 42.4909 18.9067L48.4909 28.344C48.8855 28.9654 48.8055 29.8907 47.8909 30.2854L42.6669 32.52V40.3334C42.6669 41.7479 42.105 43.1044 41.1048 44.1046C40.1046 45.1048 38.748 45.6667 37.3335 45.6667H32.0029L32.0002 53.6667H8.0002V43.816C8.0002 40.6694 6.83753 37.6907 4.6802 35.0027C2.16741 31.8653 0.592144 28.0817 0.135914 24.088C-0.320316 20.0943 0.361051 16.053 2.10151 12.4297C3.84197 8.80635 6.57069 5.74846 9.97328 3.60835C13.3759 1.46823 17.3139 0.332971 21.3335 0.333374ZM19.9202 15.7014C19.0402 14.8511 17.8615 14.3805 16.6379 14.3909C15.4143 14.4013 14.2438 14.8918 13.3784 15.7569C12.5129 16.622 12.0219 17.7923 12.011 19.0159C12.0002 20.2395 12.4703 21.4184 13.3202 22.2987L21.3335 30.3147L29.3469 22.2987C29.7925 21.8681 30.1479 21.3531 30.3924 20.7837C30.6368 20.2143 30.7654 19.6019 30.7707 18.9823C30.776 18.3627 30.6578 17.7482 30.423 17.1747C30.1882 16.6012 29.8416 16.0803 29.4034 15.6422C28.9651 15.2041 28.444 14.8577 27.8704 14.6232C27.2969 14.3886 26.6823 14.2707 26.0627 14.2762C25.4431 14.2817 24.8307 14.4106 24.2614 14.6553C23.6921 14.9 23.1773 15.2556 22.7469 15.7014L21.3335 17.1147L19.9202 15.7014Z" fill="#192D47"/>
</svg>
