<svg width="65" height="64" viewBox="0 0 65 64" fill="none" xmlns="http://www.w3.org/2000/svg">
<rect x="0.5" width="64" height="64" rx="32" fill="#192D47"/>
<path d="M32.4999 14.3999C34.8338 14.3999 37.0721 15.327 38.7224 16.9774C40.3728 18.6277 41.2999 20.866 41.2999 23.1999C41.2999 25.5338 40.3728 27.7721 38.7224 29.4224C37.0721 31.0728 34.8338 31.9999 32.4999 31.9999C30.166 31.9999 27.9277 31.0728 26.2774 29.4224C24.627 27.7721 23.6999 25.5338 23.6999 23.1999C23.6999 20.866 24.627 18.6277 26.2774 16.9774C27.9277 15.327 30.166 14.3999 32.4999 14.3999ZM32.4999 36.3999C42.2239 36.3999 50.0999 40.3379 50.0999 45.1999V49.5999H14.8999V45.1999C14.8999 40.3379 22.7759 36.3999 32.4999 36.3999Z" fill="white"/>
</svg>
