<svg width="42" height="40" viewBox="0 0 42 40" fill="none" xmlns="http://www.w3.org/2000/svg">
<path d="M28.0739 40L8.87109 10.3346L9.44527 10.0156C10.466 9.37765 34.7087 -5.35936 40.3866 2.10484C46.6387 10.3346 29.4136 37.9585 28.648 39.1707L28.0739 40ZM10.5936 10.7174L28.0101 37.5757C29.286 35.4705 32.6672 29.665 35.6019 23.3491C40.3228 13.0141 41.5987 5.93264 39.3021 2.87041C35.2829 -2.42471 17.7388 6.44301 10.5936 10.7174Z" fill="#171F29"/>
<path d="M13.592 40L13.0816 39.1707C12.316 38.0223 -4.84524 10.3346 1.34303 2.10484C7.02092 -5.35936 31.2636 9.37765 32.2844 10.0156L32.8585 10.3346L13.592 40ZM6.63813 1.21169C4.72424 1.21169 3.19313 1.72207 2.29998 2.87041C0.00329926 5.93264 1.27922 13.0141 6.00017 23.3491C8.87101 29.665 12.316 35.4705 13.592 37.5757L31.0084 10.7174C25.4581 7.39996 13.5282 1.21169 6.63813 1.21169Z" fill="#171F29"/>
</svg>
