<svg width="166" height="40" viewBox="0 0 166 40" fill="none" xmlns="http://www.w3.org/2000/svg">
<path d="M28.0739 40L8.87109 10.3346L9.44527 10.0156C10.466 9.37765 34.7087 -5.35936 40.3866 2.10484C46.6387 10.3346 29.4136 37.9585 28.648 39.1707L28.0739 40ZM10.5936 10.7174L28.0101 37.5757C29.286 35.4705 32.6672 29.665 35.6019 23.3491C40.3228 13.0141 41.5987 5.93264 39.3021 2.87041C35.2829 -2.42471 17.7388 6.44301 10.5936 10.7174Z" fill="#171F29"/>
<path d="M13.592 40L13.0816 39.1707C12.316 38.0223 -4.84524 10.3346 1.34303 2.10484C7.02092 -5.35936 31.2636 9.37765 32.2844 10.0156L32.8585 10.3346L13.592 40ZM6.63813 1.21169C4.72424 1.21169 3.19313 1.72207 2.29998 2.87041C0.00329926 5.93264 1.27922 13.0141 6.00017 23.3491C8.87101 29.665 12.316 35.4705 13.592 37.5757L31.0084 10.7174C25.4581 7.39996 13.5282 1.21169 6.63813 1.21169Z" fill="#171F29"/>
<path d="M52.7632 0.57373H51.4873V38.7879H52.7632V0.57373Z" fill="#171F29"/>
<path d="M65.0117 26.4114H67.3084C67.8826 26.4114 68.4567 26.539 68.9033 26.7942C69.3499 27.0493 69.7327 27.3683 69.9879 27.8149C70.243 28.2615 70.3706 28.7081 70.3706 29.2822C70.3706 29.8564 70.243 30.303 69.9879 30.7495C69.7327 31.1961 69.3499 31.5151 68.9033 31.7703C68.4567 32.0255 67.9464 32.1531 67.3084 32.1531H65.0117V26.4114ZM67.2446 31.5789C67.755 31.5789 68.2015 31.4513 68.5205 31.2599C68.9033 31.0685 69.1585 30.8133 69.4137 30.4306C69.6051 30.1116 69.7327 29.665 69.7327 29.2184C69.7327 28.7718 69.6051 28.3891 69.4137 28.0063C69.2223 27.6873 68.9033 27.3683 68.5205 27.1769C68.1378 26.9856 67.6912 26.858 67.2446 26.858H65.5859V31.5151H67.2446V31.5789Z" fill="#171F29"/>
<path d="M75.9202 30.1116H72.3476C72.4114 30.5581 72.539 30.9409 72.858 31.1961C73.177 31.4513 73.5597 31.5789 74.0063 31.5789C74.2615 31.5789 74.5167 31.5151 74.7081 31.4513C74.8995 31.3875 75.0909 31.1961 75.2822 31.0047L75.6012 31.3875C75.4098 31.6427 75.1547 31.7703 74.8995 31.8979C74.6443 32.0255 74.3253 32.0893 73.9425 32.0893C73.4959 32.0893 73.1132 32.0255 72.7942 31.8341C72.4752 31.6427 72.22 31.3875 72.0286 31.0685C71.8372 30.7495 71.7734 30.3668 71.7734 29.9202C71.7734 29.4736 71.8372 29.1546 72.0286 28.7718C72.22 28.4529 72.4752 28.1977 72.7942 28.0063C73.1132 27.8149 73.4959 27.7511 73.8787 27.7511C74.2615 27.7511 74.6443 27.8149 74.9633 28.0063C75.2822 28.1977 75.5374 28.4529 75.7288 28.7718C75.9202 29.0908 75.984 29.4736 75.984 29.9202L75.9202 30.1116ZM72.7942 28.708C72.539 28.9632 72.3476 29.2822 72.3476 29.7288H75.346C75.2823 29.2822 75.1547 28.9632 74.8995 28.708C74.6443 28.4529 74.2615 28.3253 73.8787 28.3253C73.4321 28.2615 73.1132 28.3891 72.7942 28.708Z" fill="#171F29"/>
<path d="M81.2155 28.2614C81.5345 28.5804 81.6621 29.0269 81.6621 29.6011V32.0892H81.0879V29.6649C81.0879 29.2183 80.9603 28.8994 80.769 28.6442C80.5776 28.389 80.2586 28.3252 79.812 28.3252C79.3654 28.3252 78.9826 28.4528 78.7275 28.708C78.4723 28.9632 78.3447 29.3459 78.3447 29.8563V32.0892H77.7705V27.8148H78.3447V28.5804C78.4723 28.3252 78.7275 28.1338 78.9826 28.0062C79.2378 27.8786 79.5568 27.8148 79.9396 27.8148C80.45 27.8148 80.8965 27.9424 81.2155 28.2614Z" fill="#171F29"/>
<path d="M86.1287 31.8339C86.0011 31.9615 85.8735 32.0253 85.7459 32.0253C85.6183 32.0891 85.4269 32.0891 85.2355 32.0891C84.8527 32.0891 84.5338 31.9615 84.3424 31.7701C84.151 31.5787 84.0234 31.2597 84.0234 30.877V28.3251H83.2578V27.8147H84.0234V26.8578H84.5975V27.8147H85.8735V28.3251H84.5975V30.877C84.5975 31.1322 84.6613 31.3235 84.7889 31.4511C84.9165 31.5787 85.1079 31.6425 85.3631 31.6425C85.4907 31.6425 85.6183 31.6425 85.6821 31.5787C85.7459 31.5149 85.8735 31.5149 86.0011 31.3873L86.1287 31.8339Z" fill="#171F29"/>
<path d="M90.5941 28.1977C90.9131 28.4528 91.0407 28.8994 91.0407 29.4098V32.0255H90.4665V31.3875C90.3389 31.5789 90.1475 31.7703 89.8924 31.8979C89.6372 32.0255 89.3182 32.0893 88.9992 32.0893C88.5526 32.0893 88.1699 31.9617 87.8509 31.7703C87.5957 31.5151 87.4043 31.2599 87.4043 30.8771C87.4043 30.4943 87.5319 30.2392 87.7871 29.984C88.0423 29.7926 88.4888 29.665 89.063 29.665H90.4027V29.4098C90.4027 29.027 90.2752 28.7718 90.0838 28.5804C89.8924 28.3891 89.5734 28.2615 89.1906 28.2615C88.9354 28.2615 88.6802 28.3253 88.425 28.3891C88.1699 28.4529 87.9785 28.5805 87.7871 28.7718L87.5319 28.3253C87.7233 28.1339 87.9785 28.0063 88.2974 27.8787C88.6164 27.7511 88.9354 27.7511 89.2544 27.7511C89.8924 27.8149 90.2751 27.9425 90.5941 28.1977ZM89.9562 31.4513C90.2113 31.3237 90.3389 31.0685 90.4665 30.8133V30.1116H89.1268C88.425 30.1116 88.0423 30.3668 88.0423 30.8771C88.0423 31.1323 88.1061 31.3237 88.2974 31.4513C88.4888 31.5789 88.744 31.6427 89.063 31.6427C89.4458 31.6427 89.701 31.5789 89.9562 31.4513Z" fill="#171F29"/>
<path d="M93.2734 26.0923H93.8476V32.0892H93.2734V26.0923Z" fill="#171F29"/>
<path d="M99.3346 31.9616C98.9518 31.834 98.6328 31.6426 98.4414 31.4512L98.6966 31.0047C98.888 31.196 99.1432 31.3874 99.526 31.515C99.8449 31.6426 100.228 31.7064 100.611 31.7064C101.121 31.7064 101.504 31.6426 101.759 31.4512C102.014 31.2598 102.142 31.0046 102.142 30.7495C102.142 30.4943 102.078 30.3667 101.95 30.1753C101.823 30.0477 101.631 29.9201 101.44 29.8563C101.248 29.7925 100.929 29.7287 100.611 29.6011C100.164 29.4735 99.8449 29.4097 99.5898 29.2821C99.3346 29.1545 99.1432 29.0269 98.9518 28.8356C98.7604 28.6442 98.6966 28.3252 98.6966 28.0062C98.6966 27.751 98.7604 27.432 98.9518 27.2406C99.1432 27.0493 99.3346 26.7941 99.6536 26.6665C99.9725 26.5389 100.355 26.4751 100.802 26.4751C101.121 26.4751 101.44 26.5389 101.759 26.6027C102.078 26.6665 102.333 26.7941 102.588 26.9855L102.397 27.432C102.142 27.3045 101.886 27.1769 101.631 27.0493C101.376 26.9855 101.121 26.9217 100.866 26.9217C100.355 26.9217 99.9725 27.0493 99.7173 27.2406C99.4622 27.432 99.3346 27.6872 99.3346 28.0062C99.3346 28.2614 99.3984 28.389 99.526 28.5804C99.6535 28.7718 99.8449 28.8356 100.036 28.8994C100.228 28.9632 100.547 29.0269 100.866 29.1545C101.312 29.2821 101.631 29.3459 101.886 29.4735C102.142 29.6011 102.333 29.7287 102.524 29.9201C102.716 30.1115 102.78 30.3667 102.78 30.7495C102.78 31.0046 102.716 31.3236 102.524 31.515C102.333 31.7064 102.142 31.9616 101.823 32.0892C101.504 32.2168 101.121 32.2806 100.674 32.2806C100.1 32.153 99.7174 32.0892 99.3346 31.9616Z" fill="#171F29"/>
<path d="M106.735 31.8339C106.608 31.9615 106.48 32.0253 106.352 32.0253C106.225 32.0891 106.033 32.0891 105.842 32.0891C105.459 32.0891 105.14 31.9615 104.949 31.7701C104.757 31.5787 104.63 31.2597 104.63 30.877V28.3251H103.864V27.8147H104.63V26.8578H105.204V27.8147H106.48V28.3251H105.204V30.877C105.204 31.1322 105.268 31.3235 105.395 31.4511C105.523 31.5787 105.714 31.6425 105.97 31.6425C106.097 31.6425 106.225 31.6425 106.289 31.5787C106.416 31.5149 106.48 31.5149 106.608 31.3873L106.735 31.8339Z" fill="#171F29"/>
<path d="M112.221 27.8148V32.0892H111.647V31.3236C111.519 31.5788 111.264 31.7702 111.009 31.8978C110.754 32.0254 110.435 32.0892 110.116 32.0892C109.542 32.0892 109.095 31.9616 108.776 31.6426C108.457 31.3236 108.266 30.8771 108.266 30.3029V27.8148H108.84V30.2391C108.84 30.6857 108.967 31.0046 109.159 31.2598C109.35 31.515 109.669 31.5788 110.116 31.5788C110.562 31.5788 110.945 31.4512 111.2 31.196C111.455 30.9408 111.583 30.5581 111.583 30.0477V27.8148H112.221Z" fill="#171F29"/>
<path d="M118.409 26.0923V32.0892H117.835V31.2598C117.644 31.515 117.453 31.7702 117.134 31.8978C116.878 32.0254 116.559 32.153 116.177 32.153C115.794 32.153 115.411 32.0892 115.092 31.8978C114.773 31.7064 114.518 31.4512 114.326 31.1322C114.135 30.8132 114.071 30.4305 114.071 29.9839C114.071 29.5373 114.135 29.2183 114.326 28.8355C114.518 28.5165 114.773 28.2614 115.092 28.07C115.411 27.8786 115.794 27.8148 116.177 27.8148C116.496 27.8148 116.815 27.8786 117.134 28.0062C117.389 28.1338 117.644 28.389 117.835 28.6441V26.0923H118.409ZM117.07 31.3874C117.325 31.2598 117.516 31.0684 117.644 30.8132C117.771 30.558 117.835 30.2391 117.835 29.9201C117.835 29.6011 117.771 29.2821 117.644 29.0269C117.516 28.7717 117.325 28.5804 117.07 28.4528C116.815 28.3252 116.559 28.2614 116.24 28.2614C115.921 28.2614 115.666 28.3252 115.411 28.4528C115.156 28.5804 114.964 28.7717 114.837 29.0269C114.709 29.2821 114.645 29.6011 114.645 29.9201C114.645 30.2391 114.709 30.558 114.837 30.8132C114.964 31.0684 115.156 31.2598 115.411 31.3874C115.666 31.515 115.921 31.5788 116.24 31.5788C116.559 31.6426 116.815 31.5788 117.07 31.3874Z" fill="#171F29"/>
<path d="M120.642 26.7941C120.578 26.7303 120.515 26.6027 120.515 26.4751C120.515 26.3475 120.578 26.2837 120.642 26.2199C120.706 26.1561 120.834 26.0923 120.961 26.0923C121.089 26.0923 121.153 26.1561 121.28 26.2199C121.344 26.2837 121.408 26.4113 121.408 26.4751C121.408 26.6027 121.344 26.6665 121.28 26.7941C121.216 26.9216 121.089 26.9216 120.961 26.9216C120.834 26.9216 120.706 26.8578 120.642 26.7941ZM120.642 27.8148H121.216V32.0892H120.642V27.8148Z" fill="#171F29"/>
<path d="M124.087 31.8341C123.768 31.6427 123.513 31.3875 123.322 31.0685C123.13 30.7495 123.066 30.3668 123.066 29.9202C123.066 29.4736 123.13 29.1546 123.322 28.7718C123.513 28.4529 123.768 28.1977 124.087 28.0063C124.406 27.8149 124.789 27.7511 125.172 27.7511C125.554 27.7511 125.937 27.8149 126.256 28.0063C126.575 28.1977 126.83 28.4529 127.022 28.7718C127.213 29.0908 127.277 29.4736 127.277 29.9202C127.277 30.3668 127.213 30.6857 127.022 31.0685C126.83 31.4513 126.575 31.6427 126.256 31.8341C125.937 32.0255 125.554 32.0893 125.172 32.0893C124.789 32.0893 124.47 32.0255 124.087 31.8341ZM126.065 31.3875C126.32 31.2599 126.511 31.0685 126.639 30.8133C126.767 30.5581 126.83 30.2392 126.83 29.9202C126.83 29.6012 126.767 29.2822 126.639 29.027C126.511 28.7718 126.32 28.5805 126.065 28.4529C125.81 28.3253 125.554 28.2615 125.235 28.2615C124.917 28.2615 124.661 28.3253 124.406 28.4529C124.151 28.5805 123.96 28.7718 123.832 29.027C123.704 29.2822 123.641 29.6012 123.641 29.9202C123.641 30.2392 123.704 30.5581 123.832 30.8133C123.96 31.0685 124.151 31.2599 124.406 31.3875C124.661 31.5151 124.917 31.5789 125.235 31.5789C125.554 31.6427 125.81 31.5789 126.065 31.3875Z" fill="#171F29"/>
<path d="M78.6648 20.7336V20.8612H72.7317C71.5833 20.8612 70.5626 20.7336 69.7332 20.4784C68.9039 20.2232 68.0107 19.7766 67.1176 19.0749C66.2244 18.3731 65.5227 17.5437 64.9485 16.4592C64.3743 15.4384 64.1191 14.3539 64.1191 13.2694C64.1191 12.121 64.4381 10.9089 65.1399 9.76055C65.8417 8.61221 66.7986 7.65526 68.0745 6.88971C69.3505 6.12415 70.8178 5.80518 72.4127 5.80518C73.88 5.80518 75.4111 6.12416 77.0061 6.76212L77.644 8.48462H77.5164C77.006 7.84665 76.3043 7.27248 75.4111 6.82591C74.518 6.37933 73.4972 6.18794 72.4127 6.18794C70.4988 6.18794 68.9677 6.88972 67.6918 8.35704C66.4796 9.82436 65.8417 11.6107 65.8417 13.7159C65.8417 14.6091 65.9692 15.3746 66.1606 16.0764C66.352 16.7782 66.7348 17.4799 67.309 18.1179C67.8831 18.8197 68.4573 19.2662 69.0953 19.5852C69.7332 19.9042 70.435 20.0956 71.2006 20.2232C71.9661 20.3508 72.6041 20.4146 73.0507 20.4146H73.8162C74.7094 20.3508 75.2835 20.287 75.4749 20.1594C75.6663 20.0318 75.7939 19.7128 75.7939 19.1387V16.9058C75.7939 16.4592 75.7301 16.204 75.5387 16.0126C75.3473 15.8212 75.0922 15.8212 74.7732 15.8212V15.6936H78.601V15.8212C78.1544 15.8212 77.8992 15.885 77.7716 16.0764C77.644 16.2678 77.5802 16.5868 77.5802 17.0334V19.33C77.5802 19.7766 77.644 20.1594 77.7716 20.3508C77.8992 20.5422 78.0906 20.6698 78.4734 20.6698H78.6648V20.7336Z" fill="#171F29" stroke="#171F29" stroke-width="0.75" stroke-miterlimit="10"/>
<path d="M89.7018 5.80518C91.807 5.80518 93.4658 6.44314 94.8055 7.71907C96.1452 8.995 96.7832 10.5899 96.7832 12.44C96.7832 14.8643 96.0176 16.9058 94.4865 18.5645C92.9554 20.2232 90.9139 21.0525 88.4258 21.0525C86.3843 21.0525 84.7256 20.3508 83.3859 19.0111C82.11 17.6713 81.4082 16.0764 81.4082 14.1625C81.4082 12.8866 81.7272 11.6107 82.3652 10.2709C83.0031 8.93121 83.9601 7.84666 85.236 7.01731C86.5119 6.25175 87.9793 5.80518 89.7018 5.80518ZM89.638 20.287C90.6587 20.287 91.6795 20.0318 92.6364 19.4576C93.6571 18.8835 94.4227 18.1817 94.9969 17.2248C95.571 16.2678 95.8262 15.3109 95.8262 14.2901C95.8262 12.8866 95.4434 11.5469 94.6779 10.3985C93.9123 9.25018 92.8916 8.29324 91.6795 7.65527C90.4673 7.01731 89.319 6.63452 88.2982 6.63452C86.8309 6.63452 85.4912 7.2087 84.279 8.29324C83.0669 9.37778 82.4927 10.7813 82.4927 12.44C82.4927 14.5453 83.1945 16.3954 84.6618 17.9903C86.193 19.5214 87.8517 20.287 89.638 20.287Z" fill="#171F29" stroke="#171F29" stroke-width="0.75" stroke-miterlimit="10"/>
<path d="M99.9727 6.18764V6.06006H104.183C105.268 6.06006 106.033 6.06006 106.48 6.12386C106.926 6.18766 107.437 6.31524 107.947 6.57042C108.458 6.82561 108.84 7.2084 109.096 7.65497C109.351 8.10155 109.478 8.67572 109.478 9.31369C109.478 10.0792 109.223 10.781 108.777 11.4828C108.33 12.1845 107.692 12.7587 106.863 13.2053L107.883 14.8002C108.139 15.183 108.713 16.0761 109.67 17.4158C110.627 18.7556 111.392 19.5849 111.966 19.9039C112.541 20.2229 113.051 20.3505 113.498 20.3505C114.008 20.3505 114.582 20.1591 115.22 19.7763L115.284 19.9677C114.454 20.6057 113.434 20.9247 112.158 20.9247C111.328 20.9247 110.563 20.6695 109.925 20.1591C109.287 19.6487 108.266 18.2452 106.735 16.0123C106.735 16.0123 106.735 16.0123 106.735 15.9485L105.268 13.6518L103.928 13.7156H102.716V19.3935C102.716 19.8401 102.78 20.1591 102.907 20.3505C103.035 20.5419 103.29 20.6695 103.8 20.6695V20.7971H99.9727V20.6695C100.419 20.6695 100.738 20.5419 100.866 20.3505C100.993 20.1591 101.057 19.7763 101.057 19.2659V7.52737C101.057 7.14459 100.993 6.82561 100.93 6.57042C100.802 6.31524 100.483 6.18764 99.9727 6.18764ZM102.78 6.44284V13.3967H104.311C105.523 13.3967 106.416 13.0777 107.054 12.5035C107.692 11.9293 107.947 11.1638 107.947 10.2068C107.947 9.31368 107.628 8.42053 107.054 7.59117C106.48 6.76182 105.459 6.37904 103.992 6.37904H102.78V6.44284Z" fill="#171F29" stroke="#171F29" stroke-width="0.75" stroke-miterlimit="10"/>
<path d="M129.191 20.7336V20.8612H123.195C122.046 20.8612 121.025 20.7336 120.196 20.4784C119.367 20.2232 118.474 19.7766 117.58 19.0749C116.687 18.3731 115.986 17.5437 115.411 16.4592C114.837 15.4384 114.582 14.3539 114.582 13.2694C114.582 12.121 114.901 10.9089 115.603 9.76055C116.305 8.61221 117.261 7.65526 118.537 6.88971C119.813 6.12415 121.281 5.80518 122.876 5.80518C124.343 5.80518 125.874 6.12416 127.469 6.76212L128.107 8.48462H127.979C127.469 7.84665 126.767 7.27248 125.874 6.82591C124.981 6.37933 123.96 6.18794 122.876 6.18794C120.962 6.18794 119.431 6.88972 118.155 8.35704C116.943 9.82436 116.305 11.6107 116.305 13.7159C116.305 14.6091 116.432 15.3746 116.624 16.0764C116.815 16.7782 117.198 17.4799 117.772 18.1179C118.346 18.8197 118.92 19.2662 119.558 19.5852C120.196 19.9042 120.898 20.0956 121.663 20.2232C122.429 20.3508 123.067 20.4146 123.514 20.4146H124.279C125.172 20.3508 125.746 20.287 125.938 20.1594C126.193 20.0318 126.257 19.7128 126.257 19.1387V16.9058C126.257 16.4592 126.193 16.204 126.002 16.0126C125.81 15.885 125.555 15.8212 125.236 15.8212V15.6936H129.064V15.8212C128.617 15.8212 128.362 15.885 128.234 16.0764C128.107 16.2678 128.043 16.5868 128.043 17.0334V19.33C128.043 19.7766 128.107 20.1594 128.234 20.3508C128.362 20.5422 128.553 20.6698 128.936 20.6698H129.191V20.7336Z" fill="#171F29" stroke="#171F29" stroke-width="0.75" stroke-miterlimit="10"/>
<path d="M135.89 6.06006V6.18764C135.699 6.18764 135.507 6.18764 135.252 6.25144C134.997 6.31524 134.869 6.44283 134.805 6.63422C134.742 6.76182 134.742 7.1446 134.742 7.71877V19.0746C134.742 19.7125 134.742 20.0953 134.805 20.2229C134.869 20.3505 134.933 20.4781 135.124 20.5419C135.252 20.6057 135.507 20.6695 135.89 20.6695V20.7971H131.935V20.6695C132.445 20.6695 132.764 20.6057 132.892 20.4143C133.019 20.2229 133.083 19.7763 133.083 19.1384V7.91016C133.083 7.20839 133.019 6.76181 132.892 6.50662C132.764 6.31523 132.445 6.18764 131.998 6.25144V6.12386H135.89V6.06006Z" fill="#171F29" stroke="#171F29" stroke-width="0.75" stroke-miterlimit="10"/>
<path d="M139.08 6.18796V5.99658H148.394V8.03808H148.267C148.075 7.27252 147.884 6.82594 147.756 6.69835C147.629 6.57076 147.31 6.50695 146.736 6.50695H141.823V13.1418H146.353C146.799 13.1418 147.118 13.078 147.182 13.0142C147.31 12.9504 147.374 12.8228 147.374 12.6314H147.501V14.035H147.374C147.31 13.8436 147.246 13.716 147.118 13.6522C146.991 13.5884 146.736 13.5246 146.417 13.5246H141.76V18.1179C141.76 18.8197 141.823 19.3301 141.951 19.5852C142.079 19.9042 142.27 20.0956 142.589 20.1594C142.844 20.2232 143.291 20.287 143.865 20.287H146.48C147.31 20.287 147.82 20.287 148.075 20.2232C148.331 20.1594 148.522 20.0318 148.65 19.9042C148.841 19.7128 148.905 19.3939 149.032 18.8197H149.16V20.8612H139.08V20.7336C139.399 20.7336 139.654 20.6698 139.846 20.5422C140.037 20.4146 140.101 20.1594 140.101 19.7128V7.78288C140.101 7.20871 140.037 6.88973 139.973 6.63455C139.909 6.31556 139.59 6.18796 139.08 6.18796Z" fill="#171F29" stroke="#171F29" stroke-width="0.75" stroke-miterlimit="10"/>
<path d="M158.41 21.1162H158.219L152.924 8.1017C152.541 7.20855 152.222 6.63438 151.967 6.50679C151.712 6.37919 151.456 6.2516 151.201 6.2516V6.12402H154.646V6.2516C154.327 6.2516 154.2 6.3792 154.2 6.63439C154.2 6.76198 154.2 6.82578 154.263 6.95337L158.857 18.373L163.386 6.95337C163.45 6.82578 163.45 6.69818 163.45 6.57059C163.45 6.3154 163.259 6.2516 162.94 6.2516V6.12402H165.173V6.2516C165.045 6.2516 164.854 6.25161 164.662 6.31541C164.471 6.3792 164.343 6.50679 164.152 6.82577C163.96 7.14475 163.897 7.27236 163.897 7.33615L158.41 21.1162Z" fill="#171F29" stroke="#171F29" stroke-width="0.75" stroke-miterlimit="10"/>
</svg>
