<svg width="24" height="24" viewBox="0 0 24 24" fill="none" xmlns="http://www.w3.org/2000/svg">
<mask id="path-1-inside-1_285_1913" fill="white">
<path d="M4.616 19C4.15533 19 3.771 18.846 3.463 18.538C3.155 18.23 3.00067 17.8453 3 17.384V6.616C3 6.15533 3.15433 5.771 3.463 5.463C3.77167 5.155 4.15567 5.00067 4.615 5H19.385C19.845 5 20.229 5.15433 20.537 5.463C20.845 5.77167 20.9993 6.156 21 6.616V17.385C21 17.845 20.8457 18.2293 20.537 18.538C20.2283 18.8467 19.8443 19.0007 19.385 19H4.616ZM12 12.116L4 6.885V17.385C4 17.5643 4.05767 17.7117 4.173 17.827C4.28833 17.9423 4.436 18 4.616 18H19.385C19.5643 18 19.7117 17.9423 19.827 17.827C19.9423 17.7117 20 17.564 20 17.384V6.884L12 12.116ZM12 11L19.692 6H4.308L12 11ZM4 6.885V6V17.385C4 17.5643 4.05767 17.7117 4.173 17.827C4.28833 17.9423 4.436 18 4.616 18H4V6.885Z"/>
</mask>
<path d="M4.616 19C4.15533 19 3.771 18.846 3.463 18.538C3.155 18.23 3.00067 17.8453 3 17.384V6.616C3 6.15533 3.15433 5.771 3.463 5.463C3.77167 5.155 4.15567 5.00067 4.615 5H19.385C19.845 5 20.229 5.15433 20.537 5.463C20.845 5.77167 20.9993 6.156 21 6.616V17.385C21 17.845 20.8457 18.2293 20.537 18.538C20.2283 18.8467 19.8443 19.0007 19.385 19H4.616ZM12 12.116L4 6.885V17.385C4 17.5643 4.05767 17.7117 4.173 17.827C4.28833 17.9423 4.436 18 4.616 18H19.385C19.5643 18 19.7117 17.9423 19.827 17.827C19.9423 17.7117 20 17.564 20 17.384V6.884L12 12.116ZM12 11L19.692 6H4.308L12 11ZM4 6.885V6V17.385C4 17.5643 4.05767 17.7117 4.173 17.827C4.28833 17.9423 4.436 18 4.616 18H4V6.885Z" fill="#192D47"/>
<path d="M3.5 17.385C3.5 17.6824 3.60057 17.9617 3.81945 18.1806L4.52655 17.4734C4.51476 17.4617 4.5 17.4462 4.5 17.385H3.5ZM3.81945 18.1806C4.0387 18.3998 4.31847 18.5 4.616 18.5V17.5C4.55353 17.5 4.53797 17.4849 4.52655 17.4734L3.81945 18.1806ZM3 17.384H2L2 17.3854L3 17.384ZM4.615 5V4L4.61355 4L4.615 5ZM21 6.616H22L22 6.61455L21 6.616ZM19.385 19L19.3865 18H19.385V19ZM12 12.116L11.4527 12.953L12.0001 13.3108L12.5473 12.9529L12 12.116ZM20 17.384H19H20ZM20 6.884H21V5.03513L19.4527 6.04709L20 6.884ZM12 11L11.455 11.8384L12 12.1927L12.545 11.8384L12 11ZM19.692 6L20.237 6.83843L23.0652 5H19.692V6ZM4.308 6V5H0.93475L3.763 6.83843L4.308 6ZM4 18H3V19H4V18ZM4.616 18C4.40358 18 4.2789 17.9397 4.17011 17.8309L2.75589 19.2451C3.2631 19.7523 3.90708 20 4.616 20V18ZM4.17011 17.8309C4.06122 17.722 4.00031 17.5965 4 17.3826L2 17.3854C2.00103 18.0941 2.24878 18.738 2.75589 19.2451L4.17011 17.8309ZM4 17.384V6.616H2V17.384H4ZM4 6.616C4 6.40426 4.06016 6.27982 4.16934 6.17087L2.75666 4.75513C2.24851 5.26218 2 5.90641 2 6.616H4ZM4.16934 6.17087C4.28007 6.06038 4.40577 6.0003 4.61645 6L4.61355 4C3.90556 4.00103 3.26326 4.24962 2.75666 4.75513L4.16934 6.17087ZM4.615 6H19.385V4H4.615V6ZM19.385 6C19.5956 6 19.7199 6.05986 19.8291 6.16934L21.2449 4.75666C20.7381 4.24881 20.0944 4 19.385 4V6ZM19.8291 6.16934C19.9393 6.27978 19.9997 6.40566 20 6.61745L22 6.61455C21.999 5.90634 21.7507 5.26356 21.2449 4.75666L19.8291 6.16934ZM20 6.616V17.385H22V6.616H20ZM20 17.385C20 17.5956 19.9401 17.7207 19.8299 17.8309L21.2441 19.2451C21.7512 18.738 22 18.0944 22 17.385H20ZM19.8299 17.8309C19.7198 17.941 19.5955 18.0003 19.3865 18L19.3835 20C20.0931 20.001 20.7369 19.7523 21.2441 19.2451L19.8299 17.8309ZM19.385 18H4.616V20H19.385V18ZM12.5473 11.279L4.54727 6.04804L3.45273 7.72196L11.4527 12.953L12.5473 11.279ZM3 6.885V17.385H5V6.885H3ZM4.616 19H19.385V17H4.616V19ZM19.385 19C19.8006 19 20.2117 18.8565 20.5341 18.5341L19.1199 17.1199C19.1567 17.0831 19.2067 17.0485 19.2655 17.0255C19.3224 17.0033 19.3665 17 19.385 17V19ZM20.5341 18.5341C20.8573 18.2109 21 17.7991 21 17.384H19C19 17.3663 19.0031 17.3227 19.0253 17.266C19.0482 17.2073 19.0827 17.157 19.1199 17.1199L20.5341 18.5341ZM21 17.384V6.884H19V17.384H21ZM19.4527 6.04709L11.4527 11.2791L12.5473 12.9529L20.5473 7.72091L19.4527 6.04709ZM12.545 11.8384L20.237 6.83843L19.147 5.16157L11.455 10.1616L12.545 11.8384ZM19.692 5H4.308V7H19.692V5ZM3.763 6.83843L11.455 11.8384L12.545 10.1616L4.853 5.16157L3.763 6.83843ZM5 6.885V6H3V6.885H5ZM3 6V17.385H5V6H3ZM4.616 17H4V19H4.616V17ZM5 18V6.885H3V18H5Z" fill="#192D47" mask="url(#path-1-inside-1_285_1913)"/>
</svg>
